<svg width="132" height="39" viewBox="0 0 132 39" fill="none" xmlns="http://www.w3.org/2000/svg">
<path d="M14.3525 13.64C15.3658 13.8 16.2858 14.2133 17.1125 14.88C17.9658 15.5467 18.6325 16.3733 19.1125 17.36C19.6192 18.3467 19.8725 19.4 19.8725 20.52C19.8725 21.9333 19.5125 23.2133 18.7925 24.36C18.0725 25.48 17.0192 26.3733 15.6325 27.04C14.2725 27.68 12.6592 28 10.7925 28H0.3925V0.119999H10.3925C12.2858 0.119999 13.8992 0.439999 15.2325 1.08C16.5658 1.69333 17.5658 2.53333 18.2325 3.6C18.8992 4.66667 19.2325 5.86666 19.2325 7.2C19.2325 8.85333 18.7792 10.2267 17.8725 11.32C16.9925 12.3867 15.8192 13.16 14.3525 13.64ZM4.0325 12.16H10.1525C11.8592 12.16 13.1792 11.76 14.1125 10.96C15.0458 10.16 15.5125 9.05333 15.5125 7.64C15.5125 6.22667 15.0458 5.12 14.1125 4.32C13.1792 3.52 11.8325 3.12 10.0725 3.12H4.0325V12.16ZM10.4725 25C12.2858 25 13.6992 24.5733 14.7125 23.72C15.7258 22.8667 16.2325 21.68 16.2325 20.16C16.2325 18.6133 15.6992 17.4 14.6325 16.52C13.5658 15.6133 12.1392 15.16 10.3525 15.16H4.0325V25H10.4725ZM44.9238 16.2C44.9238 16.8933 44.8838 17.6267 44.8038 18.4H27.2838C27.4171 20.56 28.1504 22.2533 29.4838 23.48C30.8438 24.68 32.4838 25.28 34.4038 25.28C35.9771 25.28 37.2838 24.92 38.3238 24.2C39.3904 23.4533 40.1371 22.4667 40.5638 21.24H44.4838C43.8971 23.3467 42.7238 25.0667 40.9638 26.4C39.2038 27.7067 37.0171 28.36 34.4038 28.36C32.3238 28.36 30.4571 27.8933 28.8038 26.96C27.1771 26.0267 25.8971 24.7067 24.9638 23C24.0304 21.2667 23.5638 19.2667 23.5638 17C23.5638 14.7333 24.0171 12.7467 24.9238 11.04C25.8304 9.33333 27.0971 8.02667 28.7238 7.12C30.3771 6.18667 32.2704 5.72 34.4038 5.72C36.4838 5.72 38.3238 6.17333 39.9238 7.08C41.5238 7.98667 42.7504 9.24 43.6038 10.84C44.4838 12.4133 44.9238 14.2 44.9238 16.2ZM41.1638 15.44C41.1638 14.0533 40.8571 12.8667 40.2438 11.88C39.6304 10.8667 38.7904 10.1067 37.7238 9.6C36.6838 9.06667 35.5238 8.8 34.2438 8.8C32.4038 8.8 30.8304 9.38667 29.5238 10.56C28.2438 11.7333 27.5104 13.36 27.3238 15.44H41.1638ZM48.3684 16.96C48.3684 14.72 48.8218 12.76 49.7284 11.08C50.6351 9.37333 51.8751 8.05333 53.4484 7.12C55.0484 6.18667 56.8218 5.72 58.7684 5.72C60.6884 5.72 62.3551 6.13333 63.7684 6.96C65.1818 7.78667 66.2351 8.82667 66.9284 10.08V6.08H70.6084V28H66.9284V23.92C66.2084 25.2 65.1284 26.2667 63.6884 27.12C62.2751 27.9467 60.6218 28.36 58.7284 28.36C56.7818 28.36 55.0218 27.88 53.4484 26.92C51.8751 25.96 50.6351 24.6133 49.7284 22.88C48.8218 21.1467 48.3684 19.1733 48.3684 16.96ZM66.9284 17C66.9284 15.3467 66.5951 13.9067 65.9284 12.68C65.2618 11.4533 64.3551 10.52 63.2084 9.88C62.0884 9.21333 60.8484 8.88 59.4884 8.88C58.1284 8.88 56.8884 9.2 55.7684 9.84C54.6484 10.48 53.7551 11.4133 53.0884 12.64C52.4218 13.8667 52.0884 15.3067 52.0884 16.96C52.0884 18.64 52.4218 20.1067 53.0884 21.36C53.7551 22.5867 54.6484 23.5333 55.7684 24.2C56.8884 24.84 58.1284 25.16 59.4884 25.16C60.8484 25.16 62.0884 24.84 63.2084 24.2C64.3551 23.5333 65.2618 22.5867 65.9284 21.36C66.5951 20.1067 66.9284 18.6533 66.9284 17Z" fill="#FFDB78"/>
<path d="M84.5197 28.36C82.8397 28.36 81.333 28.08 79.9997 27.52C78.6664 26.9333 77.613 26.1333 76.8397 25.12C76.0664 24.08 75.6397 22.8933 75.5597 21.56H79.3197C79.4264 22.6533 79.933 23.5467 80.8397 24.24C81.773 24.9333 82.9864 25.28 84.4797 25.28C85.8664 25.28 86.9597 24.9733 87.7597 24.36C88.5597 23.7467 88.9597 22.9733 88.9597 22.04C88.9597 21.08 88.533 20.3733 87.6797 19.92C86.8264 19.44 85.5064 18.9733 83.7197 18.52C82.093 18.0933 80.7597 17.6667 79.7197 17.24C78.7064 16.7867 77.8264 16.1333 77.0797 15.28C76.3597 14.4 75.9997 13.2533 75.9997 11.84C75.9997 10.72 76.333 9.69333 76.9997 8.76C77.6664 7.82667 78.613 7.09333 79.8397 6.56C81.0664 6 82.4664 5.72 84.0397 5.72C86.4664 5.72 88.4264 6.33333 89.9197 7.56C91.413 8.78667 92.213 10.4667 92.3197 12.6H88.6797C88.5997 11.4533 88.133 10.5333 87.2797 9.84C86.453 9.14667 85.333 8.8 83.9197 8.8C82.613 8.8 81.573 9.08 80.7997 9.64C80.0264 10.2 79.6397 10.9333 79.6397 11.84C79.6397 12.56 79.8664 13.16 80.3197 13.64C80.7997 14.0933 81.3864 14.4667 82.0797 14.76C82.7997 15.0267 83.7864 15.3333 85.0397 15.68C86.613 16.1067 87.893 16.5333 88.8797 16.96C89.8664 17.36 90.7064 17.9733 91.3997 18.8C92.1197 19.6267 92.493 20.7067 92.5197 22.04C92.5197 23.24 92.1864 24.32 91.5197 25.28C90.853 26.24 89.9064 27 88.6797 27.56C87.4797 28.0933 86.093 28.36 84.5197 28.36ZM102.098 9.08V22C102.098 23.0667 102.325 23.8267 102.778 24.28C103.231 24.7067 104.018 24.92 105.138 24.92H107.818V28H104.538C102.511 28 100.991 27.5333 99.9781 26.6C98.9648 25.6667 98.4581 24.1333 98.4581 22V9.08H95.6181V6.08H98.4581V0.559998H102.098V6.08H107.818V9.08H102.098ZM131.108 6.08L117.908 38.32H114.148L118.468 27.76L109.628 6.08H113.668L120.548 23.84L127.348 6.08H131.108Z" fill="#FF9F63"/>
</svg>
